<?xml version="1.0" encoding="UTF-8" standalone="no"?>
<!DOCTYPE svg PUBLIC "-//W3C//DTD SVG 1.1//EN"
 "http://www.w3.org/Graphics/SVG/1.1/DTD/svg11.dtd">
<!-- Generated by graphviz version 8.0.5 (20230430.1635)
 -->
<!-- Pages: 1 -->
<svg width="1986pt" height="501pt"
 viewBox="0.00 0.00 1985.67 500.84" xmlns="http://www.w3.org/2000/svg" xmlns:xlink="http://www.w3.org/1999/xlink">
<g id="graph0" class="graph" transform="scale(1 1) rotate(0) translate(4 496.84)">
<polygon fill="white" stroke="none" points="-4,4 -4,-496.84 1981.67,-496.84 1981.67,4 -4,4"/>
<!-- start -->
<g id="node1" class="node">
<title>start</title>
<ellipse fill="none" stroke="black" cx="686" cy="-474.84" rx="27" ry="18"/>
<text text-anchor="middle" x="686" y="-469.79" font-family="Times,serif" font-size="14.00">start</text>
</g>
<!-- ( -->
<g id="node2" class="node">
<title>(</title>
<ellipse fill="none" stroke="black" cx="22" cy="-378.51" rx="18" ry="18"/>
<ellipse fill="none" stroke="black" cx="22" cy="-378.51" rx="22" ry="22"/>
<text text-anchor="middle" x="22" y="-373.46" font-family="Times,serif" font-size="14.00">(</text>
</g>
<!-- start&#45;&gt;( -->
<g id="edge19" class="edge">
<title>start&#45;&gt;(</title>
<path fill="none" stroke="black" d="M658.74,-473.71C545.5,-472.95 115.71,-468.17 63.25,-438.84 51.31,-432.17 42.05,-420.41 35.37,-409.12"/>
<polygon fill="black" stroke="black" points="37.98,-407.58 30.15,-400.45 31.82,-410.91 37.98,-407.58"/>
<text text-anchor="middle" x="82.38" y="-425.54" font-family="Times,serif" font-size="14.00">吃了:(</text>
</g>
<!-- ) -->
<g id="node3" class="node">
<title>)</title>
<ellipse fill="none" stroke="black" cx="84" cy="-378.51" rx="18" ry="18"/>
<ellipse fill="none" stroke="black" cx="84" cy="-378.51" rx="22" ry="22"/>
<text text-anchor="middle" x="84" y="-373.46" font-family="Times,serif" font-size="14.00">)</text>
</g>
<!-- start&#45;&gt;) -->
<g id="edge12" class="edge">
<title>start&#45;&gt;)</title>
<path fill="none" stroke="black" d="M658.93,-473.55C553.11,-472.2 170.98,-465.51 124.25,-438.84 112.46,-432.12 103.41,-420.35 96.91,-409.07"/>
<polygon fill="black" stroke="black" points="99.58,-407.64 91.84,-400.41 93.39,-410.89 99.58,-407.64"/>
<text text-anchor="middle" x="143.38" y="-425.54" font-family="Times,serif" font-size="14.00">吃了:)</text>
</g>
<!-- { -->
<g id="node4" class="node">
<title>{</title>
<ellipse fill="none" stroke="black" cx="146" cy="-378.51" rx="18" ry="18"/>
<ellipse fill="none" stroke="black" cx="146" cy="-378.51" rx="22" ry="22"/>
<text text-anchor="middle" x="146" y="-373.46" font-family="Times,serif" font-size="14.00">}</text>
</g>
<!-- start&#45;&gt;{ -->
<g id="edge18" class="edge">
<title>start&#45;&gt;{</title>
<path fill="none" stroke="black" d="M658.87,-473.35C560.48,-471.35 226.01,-462.85 185,-438.84 173.48,-432.1 164.73,-420.45 158.46,-409.24"/>
<polygon fill="black" stroke="black" points="161.24,-407.98 153.59,-400.65 155,-411.15 161.24,-407.98"/>
<text text-anchor="middle" x="204.5" y="-425.54" font-family="Times,serif" font-size="14.00">吃了:{</text>
</g>
<!-- } -->
<g id="node5" class="node">
<title>}</title>
<ellipse fill="none" stroke="black" cx="208" cy="-378.51" rx="18" ry="18"/>
<ellipse fill="none" stroke="black" cx="208" cy="-378.51" rx="22" ry="22"/>
<text text-anchor="middle" x="208" y="-373.46" font-family="Times,serif" font-size="14.00">}</text>
</g>
<!-- start&#45;&gt;} -->
<g id="edge17" class="edge">
<title>start&#45;&gt;}</title>
<path fill="none" stroke="black" d="M658.69,-473.01C568.58,-470.08 284.44,-459.28 249,-438.84 237.17,-432.02 227.98,-420.25 221.33,-408.97"/>
<polygon fill="black" stroke="black" points="223.95,-407.47 216.13,-400.33 217.79,-410.8 223.95,-407.47"/>
<text text-anchor="middle" x="268.5" y="-425.54" font-family="Times,serif" font-size="14.00">吃了:}</text>
</g>
<!-- , -->
<g id="node6" class="node">
<title>,</title>
<ellipse fill="none" stroke="black" cx="270" cy="-378.51" rx="18" ry="18"/>
<ellipse fill="none" stroke="black" cx="270" cy="-378.51" rx="22" ry="22"/>
<text text-anchor="middle" x="270" y="-373.46" font-family="Times,serif" font-size="14.00">,</text>
</g>
<!-- start&#45;&gt;, -->
<g id="edge22" class="edge">
<title>start&#45;&gt;,</title>
<path fill="none" stroke="black" d="M658.69,-474.1C583.13,-474.39 372.98,-472.09 314,-438.84 301.61,-431.86 291.69,-419.78 284.43,-408.34"/>
<polygon fill="black" stroke="black" points="287.04,-406.87 278.97,-400.01 281,-410.41 287.04,-406.87"/>
<text text-anchor="middle" x="332" y="-425.54" font-family="Times,serif" font-size="14.00">吃了:,</text>
</g>
<!-- . -->
<g id="node7" class="node">
<title>.</title>
<ellipse fill="none" stroke="black" cx="332" cy="-378.51" rx="18" ry="18"/>
<ellipse fill="none" stroke="black" cx="332" cy="-378.51" rx="22" ry="22"/>
<text text-anchor="middle" x="332" y="-373.46" font-family="Times,serif" font-size="14.00">.</text>
</g>
<!-- start&#45;&gt;. -->
<g id="edge21" class="edge">
<title>start&#45;&gt;.</title>
<path fill="none" stroke="black" d="M658.64,-473.55C591.94,-472.41 422.88,-466.76 375,-438.84 362.81,-431.73 353.11,-419.64 346.03,-408.23"/>
<polygon fill="black" stroke="black" points="348.71,-406.86 340.7,-399.92 342.63,-410.33 348.71,-406.86"/>
<text text-anchor="middle" x="393" y="-425.54" font-family="Times,serif" font-size="14.00">吃了:.</text>
</g>
<!-- &#45; -->
<g id="node8" class="node">
<title>&#45;</title>
<ellipse fill="none" stroke="black" cx="394" cy="-378.51" rx="18" ry="18"/>
<ellipse fill="none" stroke="black" cx="394" cy="-378.51" rx="22" ry="22"/>
<text text-anchor="middle" x="394" y="-373.46" font-family="Times,serif" font-size="14.00">&#45;</text>
</g>
<!-- start&#45;&gt;&#45; -->
<g id="edge8" class="edge">
<title>start&#45;&gt;&#45;</title>
<path fill="none" stroke="black" d="M658.93,-472.78C602.05,-470.1 472.33,-461.62 435.25,-438.84 423.59,-431.68 414.38,-419.85 407.65,-408.63"/>
<polygon fill="black" stroke="black" points="410.26,-407.13 402.37,-400.07 404.14,-410.51 410.26,-407.13"/>
<text text-anchor="middle" x="454.38" y="-425.54" font-family="Times,serif" font-size="14.00">吃了:&#45;</text>
</g>
<!-- + -->
<g id="node9" class="node">
<title>+</title>
<ellipse fill="none" stroke="black" cx="456" cy="-378.51" rx="18" ry="18"/>
<ellipse fill="none" stroke="black" cx="456" cy="-378.51" rx="22" ry="22"/>
<text text-anchor="middle" x="456" y="-373.46" font-family="Times,serif" font-size="14.00">+</text>
</g>
<!-- start&#45;&gt;+ -->
<g id="edge4" class="edge">
<title>start&#45;&gt;+</title>
<path fill="none" stroke="black" d="M659.18,-471.63C612.84,-467.37 520.18,-456.84 493.5,-438.84 482.75,-431.59 474.46,-420.11 468.44,-409.18"/>
<polygon fill="black" stroke="black" points="471.15,-407.79 463.54,-400.42 464.9,-410.93 471.15,-407.79"/>
<text text-anchor="middle" x="514.25" y="-425.54" font-family="Times,serif" font-size="14.00">吃了:+</text>
</g>
<!-- ; -->
<g id="node10" class="node">
<title>;</title>
<ellipse fill="none" stroke="black" cx="518" cy="-378.51" rx="18" ry="18"/>
<ellipse fill="none" stroke="black" cx="518" cy="-378.51" rx="22" ry="22"/>
<text text-anchor="middle" x="518" y="-373.46" font-family="Times,serif" font-size="14.00">;</text>
</g>
<!-- start&#45;&gt;; -->
<g id="edge14" class="edge">
<title>start&#45;&gt;;</title>
<path fill="none" stroke="black" d="M658.91,-472.23C630.76,-469.34 586.64,-461.28 556,-438.84 545.57,-431.21 537.28,-419.77 531.14,-408.96"/>
<polygon fill="black" stroke="black" points="533.84,-407.58 526.1,-400.35 527.64,-410.83 533.84,-407.58"/>
<text text-anchor="middle" x="574" y="-425.54" font-family="Times,serif" font-size="14.00">吃了:;</text>
</g>
<!-- * -->
<g id="node11" class="node">
<title>*</title>
<ellipse fill="none" stroke="black" cx="580" cy="-378.51" rx="18" ry="18"/>
<ellipse fill="none" stroke="black" cx="580" cy="-378.51" rx="22" ry="22"/>
<text text-anchor="middle" x="580" y="-373.46" font-family="Times,serif" font-size="14.00">*</text>
</g>
<!-- start&#45;&gt;* -->
<g id="edge3" class="edge">
<title>start&#45;&gt;*</title>
<path fill="none" stroke="black" d="M661.26,-467.39C644.77,-462.04 623.53,-452.97 609,-438.84 600.89,-430.95 594.72,-420.33 590.2,-410.25"/>
<polygon fill="black" stroke="black" points="593.08,-409.03 586.08,-401.08 586.59,-411.66 593.08,-409.03"/>
<text text-anchor="middle" x="628.5" y="-425.54" font-family="Times,serif" font-size="14.00">吃了:*</text>
</g>
<!-- ! -->
<g id="node12" class="node">
<title>!</title>
<ellipse fill="none" stroke="black" cx="647" cy="-378.51" rx="27" ry="18"/>
<text text-anchor="middle" x="647" y="-373.46" font-family="Times,serif" font-size="14.00">!</text>
</g>
<!-- start&#45;&gt;! -->
<g id="edge7" class="edge">
<title>start&#45;&gt;!</title>
<path fill="none" stroke="black" d="M671.82,-459.24C666.81,-453.33 661.6,-446.18 658.25,-438.84 653.82,-429.14 651.13,-417.79 649.5,-407.62"/>
<polygon fill="black" stroke="black" points="652.85,-407.25 648.08,-397.79 645.91,-408.17 652.85,-407.25"/>
<text text-anchor="middle" x="677.38" y="-425.54" font-family="Times,serif" font-size="14.00">吃了:!</text>
</g>
<!-- = -->
<g id="node13" class="node">
<title>=</title>
<ellipse fill="none" stroke="black" cx="719" cy="-378.51" rx="27" ry="18"/>
<text text-anchor="middle" x="719" y="-373.46" font-family="Times,serif" font-size="14.00">=</text>
</g>
<!-- start&#45;&gt;= -->
<g id="edge5" class="edge">
<title>start&#45;&gt;=</title>
<path fill="none" stroke="black" d="M691.9,-456.98C696.8,-442.98 703.85,-422.81 709.54,-406.55"/>
<polygon fill="black" stroke="black" points="713.04,-408.14 713.04,-397.55 706.43,-405.83 713.04,-408.14"/>
<text text-anchor="middle" x="725.25" y="-425.54" font-family="Times,serif" font-size="14.00">吃了:=</text>
</g>
<!-- &gt; -->
<g id="node14" class="node">
<title>&gt;</title>
<ellipse fill="none" stroke="black" cx="791" cy="-378.51" rx="27" ry="18"/>
<text text-anchor="middle" x="791" y="-373.46" font-family="Times,serif" font-size="14.00">&gt;</text>
</g>
<!-- start&#45;&gt;&gt; -->
<g id="edge15" class="edge">
<title>start&#45;&gt;&gt;</title>
<path fill="none" stroke="black" d="M708.56,-464.36C721.33,-458.28 737.08,-449.53 749,-438.84 759.68,-429.26 769.16,-416.49 776.4,-405.25"/>
<polygon fill="black" stroke="black" points="779.9,-407.24 782.15,-396.88 773.94,-403.57 779.9,-407.24"/>
<text text-anchor="middle" x="787.25" y="-425.54" font-family="Times,serif" font-size="14.00">吃了:&gt;</text>
</g>
<!-- &lt; -->
<g id="node15" class="node">
<title>&lt;</title>
<ellipse fill="none" stroke="black" cx="863" cy="-378.51" rx="27" ry="18"/>
<text text-anchor="middle" x="863" y="-373.46" font-family="Times,serif" font-size="14.00">&lt;</text>
</g>
<!-- start&#45;&gt;&lt; -->
<g id="edge13" class="edge">
<title>start&#45;&gt;&lt;</title>
<path fill="none" stroke="black" d="M712.68,-470.88C739.29,-466.93 780.49,-458.06 811,-438.84 825.04,-430 837.43,-416.24 846.6,-404.2"/>
<polygon fill="black" stroke="black" points="849.91,-406.59 852.95,-396.44 844.25,-402.48 849.91,-406.59"/>
<text text-anchor="middle" x="854.25" y="-425.54" font-family="Times,serif" font-size="14.00">吃了:&lt;</text>
</g>
<!-- / -->
<g id="node24" class="node">
<title>/</title>
<ellipse fill="none" stroke="black" cx="935" cy="-378.51" rx="27" ry="18"/>
<text text-anchor="middle" x="935" y="-373.46" font-family="Times,serif" font-size="14.00">/</text>
</g>
<!-- start&#45;&gt;/ -->
<g id="edge20" class="edge">
<title>start&#45;&gt;/</title>
<path fill="none" stroke="black" d="M713.16,-474.04C751.99,-473.22 824.57,-467.54 878,-438.84 893.59,-430.47 907.45,-416.3 917.59,-403.9"/>
<polygon fill="black" stroke="black" points="920.91,-406.34 924.29,-396.3 915.39,-402.04 920.91,-406.34"/>
<text text-anchor="middle" x="921" y="-425.54" font-family="Times,serif" font-size="14.00">吃了:/</text>
</g>
<!--   -->
<g id="node28" class="node">
<title> </title>
<ellipse fill="none" stroke="black" cx="1002" cy="-378.51" rx="18" ry="18"/>
<ellipse fill="none" stroke="black" cx="1002" cy="-378.51" rx="22" ry="22"/>
<text text-anchor="middle" x="1002" y="-373.46" font-family="Times,serif" font-size="14.00"> </text>
</g>
<!-- start&#45;&gt;  -->
<g id="edge9" class="edge">
<title>start&#45;&gt; </title>
<path fill="none" stroke="black" d="M713.02,-472.35C770.51,-468.83 902.99,-458.76 943,-438.84 958.49,-431.13 972.34,-417.76 982.72,-405.65"/>
<polygon fill="black" stroke="black" points="986.03,-408.13 989.63,-398.16 980.6,-403.7 986.03,-408.13"/>
<text text-anchor="middle" x="989" y="-425.54" font-family="Times,serif" font-size="14.00">吃了: </text>
</g>
<!-- \\r -->
<g id="node29" class="node">
<title>\\r</title>
<ellipse fill="none" stroke="black" cx="1064" cy="-378.51" rx="18" ry="18"/>
<ellipse fill="none" stroke="black" cx="1064" cy="-378.51" rx="22" ry="22"/>
<text text-anchor="middle" x="1064" y="-373.46" font-family="Times,serif" font-size="14.00">\r</text>
</g>
<!-- start&#45;&gt;\\r -->
<g id="edge10" class="edge">
<title>start&#45;&gt;\\r</title>
<path fill="none" stroke="black" d="M713.4,-473.39C781.98,-471.88 959.26,-465.42 1011,-438.84 1025.29,-431.5 1037.54,-418.58 1046.65,-406.66"/>
<polygon fill="black" stroke="black" points="1049.99,-409.02 1052.99,-398.86 1044.31,-404.93 1049.99,-409.02"/>
<text text-anchor="middle" x="1057.25" y="-425.54" font-family="Times,serif" font-size="14.00">吃了:\r</text>
</g>
<!-- \\t -->
<g id="node30" class="node">
<title>\\t</title>
<ellipse fill="none" stroke="black" cx="1126" cy="-378.51" rx="18" ry="18"/>
<ellipse fill="none" stroke="black" cx="1126" cy="-378.51" rx="22" ry="22"/>
<text text-anchor="middle" x="1126" y="-373.46" font-family="Times,serif" font-size="14.00">\t</text>
</g>
<!-- start&#45;&gt;\\t -->
<g id="edge16" class="edge">
<title>start&#45;&gt;\\t</title>
<path fill="none" stroke="black" d="M713.27,-474.24C791.93,-474.97 1017.67,-473.87 1081,-438.84 1093.64,-431.85 1103.82,-419.66 1111.27,-408.15"/>
<polygon fill="black" stroke="black" points="1114.76,-410.13 1116.89,-399.76 1108.76,-406.54 1114.76,-410.13"/>
<text text-anchor="middle" x="1123.88" y="-425.54" font-family="Times,serif" font-size="14.00">吃了:\t</text>
</g>
<!-- \\n -->
<g id="node31" class="node">
<title>\\n</title>
<ellipse fill="none" stroke="black" cx="1189" cy="-378.51" rx="18.08" ry="18.08"/>
<ellipse fill="none" stroke="black" cx="1189" cy="-378.51" rx="22.08" ry="22.08"/>
<text text-anchor="middle" x="1189" y="-373.46" font-family="Times,serif" font-size="14.00">\n</text>
</g>
<!-- start&#45;&gt;\\n -->
<g id="edge6" class="edge">
<title>start&#45;&gt;\\n</title>
<path fill="none" stroke="black" d="M713.23,-473.14C806.62,-470.54 1110.28,-460.48 1148,-438.84 1159.84,-432.05 1169.04,-420.27 1175.69,-409"/>
<polygon fill="black" stroke="black" points="1179.22,-410.82 1180.88,-400.35 1173.06,-407.5 1179.22,-410.82"/>
<text text-anchor="middle" x="1191.38" y="-425.54" font-family="Times,serif" font-size="14.00">吃了:\n</text>
</g>
<!-- &quot; -->
<g id="node32" class="node">
<title>&quot;</title>
<ellipse fill="none" stroke="black" cx="1290" cy="-378.51" rx="27" ry="18"/>
<text text-anchor="middle" x="1290" y="-373.46" font-family="Times,serif" font-size="14.00">&quot;</text>
</g>
<!-- start&#45;&gt;&quot; -->
<g id="edge1" class="edge">
<title>start&#45;&gt;&quot;</title>
<path fill="none" stroke="black" d="M713.38,-474.21C808.49,-475.16 1123.91,-475.4 1217,-438.84 1237.02,-430.98 1255.75,-415.51 1269.23,-402.34"/>
<polygon fill="black" stroke="black" points="1271.4,-405.11 1275.91,-395.52 1266.41,-400.2 1271.4,-405.11"/>
<text text-anchor="middle" x="1269.12" y="-425.54" font-family="Times,serif" font-size="14.00">吃了:&quot;</text>
</g>
<!-- number -->
<g id="node34" class="node">
<title>number</title>
<ellipse fill="none" stroke="black" cx="1526" cy="-378.51" rx="39.58" ry="18"/>
<text text-anchor="middle" x="1526" y="-373.46" font-family="Times,serif" font-size="14.00">number</text>
</g>
<!-- start&#45;&gt;number -->
<g id="edge2" class="edge">
<title>start&#45;&gt;number</title>
<path fill="none" stroke="black" d="M713.34,-473.85C799.08,-473.54 1070.24,-469.98 1292,-438.84 1368.69,-428.07 1387.36,-421.23 1462,-400.59 1469.43,-398.54 1477.28,-396.14 1484.84,-393.72"/>
<polygon fill="black" stroke="black" points="1485.85,-396.75 1494.26,-390.31 1483.67,-390.09 1485.85,-396.75"/>
<text text-anchor="middle" x="1432.12" y="-425.54" font-family="Times,serif" font-size="14.00">吃了:number</text>
</g>
<!-- alpha_array -->
<g id="node38" class="node">
<title>alpha_array</title>
<ellipse fill="none" stroke="black" cx="1780" cy="-378.51" rx="54.42" ry="18"/>
<text text-anchor="middle" x="1780" y="-373.46" font-family="Times,serif" font-size="14.00">alpha_array</text>
</g>
<!-- start&#45;&gt;alpha_array -->
<g id="edge11" class="edge">
<title>start&#45;&gt;alpha_array</title>
<path fill="none" stroke="black" d="M713.3,-474.07C814.4,-474.62 1176.91,-473.85 1473,-438.84 1562.63,-428.25 1665.34,-406.39 1726.32,-392.36"/>
<polygon fill="black" stroke="black" points="1726.89,-395.59 1735.85,-389.93 1725.31,-388.77 1726.89,-395.59"/>
<text text-anchor="middle" x="1631.75" y="-425.54" font-family="Times,serif" font-size="14.00">吃了:alpha</text>
</g>
<!-- != -->
<g id="node16" class="node">
<title>!=</title>
<ellipse fill="none" stroke="black" cx="317" cy="-245.85" rx="19.62" ry="19.62"/>
<ellipse fill="none" stroke="black" cx="317" cy="-245.85" rx="23.62" ry="23.62"/>
<text text-anchor="middle" x="317" y="-240.8" font-family="Times,serif" font-size="14.00">!=</text>
</g>
<!-- !&#45;&gt;!= -->
<g id="edge23" class="edge">
<title>!&#45;&gt;!=</title>
<path fill="none" stroke="black" d="M629.07,-364.85C623.52,-361.54 617.23,-358.36 611,-356.43 558.34,-340.07 409.42,-368.96 363.5,-338.43 343.36,-325.04 331.51,-300.13 324.82,-279.67"/>
<polygon fill="black" stroke="black" points="327.9,-278.75 321.69,-270.16 321.19,-280.74 327.9,-278.75"/>
<text text-anchor="middle" x="384.25" y="-325.13" font-family="Times,serif" font-size="14.00">吃了:=</text>
</g>
<!-- !_f -->
<g id="node20" class="node">
<title>!_f</title>
<ellipse fill="none" stroke="green" cx="384" cy="-245.85" rx="21.67" ry="21.67"/>
<ellipse fill="none" stroke="green" cx="384" cy="-245.85" rx="25.67" ry="25.67"/>
<text text-anchor="middle" x="384" y="-240.8" font-family="Times,serif" font-size="14.00">!_f</text>
</g>
<!-- !&#45;&gt;!_f -->
<g id="edge24" class="edge">
<title>!&#45;&gt;!_f</title>
<path fill="none" stroke="black" d="M628.67,-364.73C623.21,-361.5 617.06,-358.39 611,-356.43 571.76,-343.71 459.87,-362.32 426.25,-338.43 407.7,-325.25 397.1,-301.85 391.15,-282.01"/>
<polygon fill="black" stroke="black" points="394.29,-281.18 388.31,-272.44 387.53,-283 394.29,-281.18"/>
<text text-anchor="middle" x="473.88" y="-325.13" font-family="Times,serif" font-size="14.00">看到前面不是=</text>
</g>
<!-- == -->
<g id="node17" class="node">
<title>==</title>
<ellipse fill="none" stroke="black" cx="497" cy="-245.85" rx="22.18" ry="22.18"/>
<ellipse fill="none" stroke="black" cx="497" cy="-245.85" rx="26.18" ry="26.18"/>
<text text-anchor="middle" x="497" y="-240.8" font-family="Times,serif" font-size="14.00">==</text>
</g>
<!-- =&#45;&gt;== -->
<g id="edge25" class="edge">
<title>=&#45;&gt;==</title>
<path fill="none" stroke="black" d="M700.63,-364.84C695.17,-361.62 689.03,-358.48 683,-356.43 623.41,-336.11 593.79,-374.93 542.5,-338.43 523.74,-325.07 512.31,-301.75 505.6,-281.98"/>
<polygon fill="black" stroke="black" points="508.73,-281.26 502.42,-272.74 502.04,-283.33 508.73,-281.26"/>
<text text-anchor="middle" x="563.25" y="-325.13" font-family="Times,serif" font-size="14.00">吃了:=</text>
</g>
<!-- =_f -->
<g id="node21" class="node">
<title>=_f</title>
<ellipse fill="none" stroke="green" cx="569" cy="-245.85" rx="24.23" ry="24.23"/>
<ellipse fill="none" stroke="green" cx="569" cy="-245.85" rx="28.23" ry="28.23"/>
<text text-anchor="middle" x="569" y="-240.8" font-family="Times,serif" font-size="14.00">=_f</text>
</g>
<!-- =&#45;&gt;=_f -->
<g id="edge26" class="edge">
<title>=&#45;&gt;=_f</title>
<path fill="none" stroke="black" d="M700.51,-365.19C695.04,-361.97 688.93,-358.75 683,-356.43 648.36,-342.86 629.11,-363.08 601.25,-338.43 585.95,-324.88 577.91,-303.64 573.68,-285.01"/>
<polygon fill="black" stroke="black" points="576.97,-284.57 571.61,-275.43 570.1,-285.92 576.97,-284.57"/>
<text text-anchor="middle" x="648.88" y="-325.13" font-family="Times,serif" font-size="14.00">看到前面不是=</text>
</g>
<!-- &gt;= -->
<g id="node18" class="node">
<title>&gt;=</title>
<ellipse fill="none" stroke="black" cx="678" cy="-245.85" rx="22.18" ry="22.18"/>
<ellipse fill="none" stroke="black" cx="678" cy="-245.85" rx="26.18" ry="26.18"/>
<text text-anchor="middle" x="678" y="-240.8" font-family="Times,serif" font-size="14.00">&gt;=</text>
</g>
<!-- &gt;&#45;&gt;&gt;= -->
<g id="edge29" class="edge">
<title>&gt;&#45;&gt;&gt;=</title>
<path fill="none" stroke="black" d="M771.82,-365.66C766.46,-362.52 760.57,-359.22 755,-356.43 736.67,-347.22 726.71,-353.22 712.5,-338.43 697.84,-323.16 689.28,-301.07 684.35,-282.41"/>
<polygon fill="black" stroke="black" points="687.57,-281.82 681.85,-272.9 680.76,-283.44 687.57,-281.82"/>
<text text-anchor="middle" x="733.25" y="-325.13" font-family="Times,serif" font-size="14.00">吃了:=</text>
</g>
<!-- &gt;_f -->
<g id="node22" class="node">
<title>&gt;_f</title>
<ellipse fill="none" stroke="green" cx="750" cy="-245.85" rx="24.23" ry="24.23"/>
<ellipse fill="none" stroke="green" cx="750" cy="-245.85" rx="28.23" ry="28.23"/>
<text text-anchor="middle" x="750" y="-240.8" font-family="Times,serif" font-size="14.00">&gt;_f</text>
</g>
<!-- &gt;&#45;&gt;&gt;_f -->
<g id="edge30" class="edge">
<title>&gt;&#45;&gt;&gt;_f</title>
<path fill="none" stroke="black" d="M777.3,-362.63C771.73,-355.75 765.78,-347.17 762.25,-338.43 755.45,-321.59 752.27,-301.73 750.84,-284.82"/>
<polygon fill="black" stroke="black" points="754.29,-284.94 750.13,-275.2 747.3,-285.41 754.29,-284.94"/>
<text text-anchor="middle" x="809.88" y="-325.13" font-family="Times,serif" font-size="14.00">看到前面不是=</text>
</g>
<!-- &lt;= -->
<g id="node19" class="node">
<title>&lt;=</title>
<ellipse fill="none" stroke="black" cx="855" cy="-245.85" rx="22.18" ry="22.18"/>
<ellipse fill="none" stroke="black" cx="855" cy="-245.85" rx="26.18" ry="26.18"/>
<text text-anchor="middle" x="855" y="-240.8" font-family="Times,serif" font-size="14.00">&lt;=</text>
</g>
<!-- &lt;&#45;&gt;&lt;= -->
<g id="edge27" class="edge">
<title>&lt;&#45;&gt;&lt;=</title>
<path fill="none" stroke="black" d="M861.94,-360.16C860.74,-340.65 858.77,-308.43 857.23,-283.33"/>
<polygon fill="black" stroke="black" points="860.67,-283.13 856.56,-273.36 853.68,-283.56 860.67,-283.13"/>
<text text-anchor="middle" x="881.25" y="-325.13" font-family="Times,serif" font-size="14.00">吃了:=</text>
</g>
<!-- &lt;_f -->
<g id="node23" class="node">
<title>&lt;_f</title>
<ellipse fill="none" stroke="green" cx="927" cy="-245.85" rx="24.23" ry="24.23"/>
<ellipse fill="none" stroke="green" cx="927" cy="-245.85" rx="28.23" ry="28.23"/>
<text text-anchor="middle" x="927" y="-240.8" font-family="Times,serif" font-size="14.00">&lt;_f</text>
</g>
<!-- &lt;&#45;&gt;&lt;_f -->
<g id="edge28" class="edge">
<title>&lt;&#45;&gt;&lt;_f</title>
<path fill="none" stroke="black" d="M880.86,-364.88C889.37,-357.98 898.97,-348.75 905,-338.43 914.4,-322.33 919.79,-302.4 922.88,-285.25"/>
<polygon fill="black" stroke="black" points="926.48,-285.87 924.6,-275.45 919.57,-284.78 926.48,-285.87"/>
<text text-anchor="middle" x="960.88" y="-325.13" font-family="Times,serif" font-size="14.00">看到前面不是=</text>
</g>
<!-- // -->
<g id="node25" class="node">
<title>//</title>
<ellipse fill="none" stroke="black" cx="1000" cy="-245.85" rx="27" ry="18"/>
<text text-anchor="middle" x="1000" y="-240.8" font-family="Times,serif" font-size="14.00">//</text>
</g>
<!-- /&#45;&gt;// -->
<g id="edge31" class="edge">
<title>/&#45;&gt;//</title>
<path fill="none" stroke="black" d="M954.2,-365.71C959.57,-362.56 965.45,-359.26 971,-356.43 988.73,-347.38 1001.12,-355.09 1012,-338.43 1024.58,-319.17 1019.29,-292.74 1012.21,-273.22"/>
<polygon fill="black" stroke="black" points="1015.16,-272.17 1008.2,-264.18 1008.66,-274.77 1015.16,-272.17"/>
<text text-anchor="middle" x="1037" y="-325.13" font-family="Times,serif" font-size="14.00">吃了:/</text>
</g>
<!-- /_f -->
<g id="node26" class="node">
<title>/_f</title>
<ellipse fill="none" stroke="green" cx="1211" cy="-245.85" rx="21.15" ry="21.15"/>
<ellipse fill="none" stroke="green" cx="1211" cy="-245.85" rx="25.15" ry="25.15"/>
<text text-anchor="middle" x="1211" y="-240.8" font-family="Times,serif" font-size="14.00">/_f</text>
</g>
<!-- /&#45;&gt;/_f -->
<g id="edge32" class="edge">
<title>/&#45;&gt;/_f</title>
<path fill="none" stroke="black" d="M953.47,-365.13C958.93,-361.91 965.05,-358.71 971,-356.43 1059.63,-322.48 1101.93,-358.24 1177,-300.18 1184.35,-294.49 1190.55,-286.74 1195.57,-278.91"/>
<polygon fill="black" stroke="black" points="1199.07,-280.85 1201.09,-270.45 1193.03,-277.32 1199.07,-280.85"/>
<text text-anchor="middle" x="1192.62" y="-325.13" font-family="Times,serif" font-size="14.00">看到前面不是/</text>
</g>
<!-- //&#45;&gt;// -->
<g id="edge33" class="edge">
<title>//&#45;&gt;//</title>
<path fill="none" stroke="black" d="M1018.02,-259.48C1031.46,-264.24 1045,-259.7 1045,-245.85 1045,-235.78 1037.85,-230.63 1028.79,-230.4"/>
<polygon fill="black" stroke="black" points="1028.3,-227.1 1019.02,-232.21 1029.46,-234 1028.3,-227.1"/>
<text text-anchor="middle" x="1106.5" y="-242.67" font-family="Times,serif" font-size="14.00">吃了:非 \n or 非 EOF</text>
</g>
<!-- //_f -->
<g id="node27" class="node">
<title>//_f</title>
<ellipse fill="none" stroke="black" cx="1000" cy="-67.63" rx="23.71" ry="23.71"/>
<ellipse fill="none" stroke="black" cx="1000" cy="-67.63" rx="27.71" ry="27.71"/>
<text text-anchor="middle" x="1000" y="-62.58" font-family="Times,serif" font-size="14.00">//_f</text>
</g>
<!-- //&#45;&gt;//_f -->
<g id="edge34" class="edge">
<title>//&#45;&gt;//_f</title>
<path fill="none" stroke="black" d="M1000,-227.63C1000,-199.65 1000,-143.67 1000,-106.16"/>
<polygon fill="black" stroke="black" points="1003.5,-106.64 1000,-96.64 996.5,-106.64 1003.5,-106.64"/>
<text text-anchor="middle" x="1043.5" y="-160.22" font-family="Times,serif" font-size="14.00">吃了 \n or EOF</text>
</g>
<!-- &quot;&#45;&gt;&quot; -->
<g id="edge35" class="edge">
<title>&quot;&#45;&gt;&quot;</title>
<path fill="none" stroke="black" d="M1313.61,-387.69C1324.97,-388.83 1335,-385.77 1335,-378.51 1335,-373.75 1330.68,-370.79 1324.5,-369.64"/>
<polygon fill="black" stroke="black" points="1324.71,-366.12 1314.61,-369.32 1324.51,-373.12 1324.71,-366.12"/>
<text text-anchor="middle" x="1394.25" y="-375.33" font-family="Times,serif" font-size="14.00">吃了:非 &quot; or 非 EOF</text>
</g>
<!-- string -->
<g id="node33" class="node">
<title>string</title>
<ellipse fill="none" stroke="black" cx="1290" cy="-245.85" rx="31.9" ry="31.9"/>
<ellipse fill="none" stroke="black" cx="1290" cy="-245.85" rx="35.9" ry="35.9"/>
<text text-anchor="middle" x="1290" y="-240.8" font-family="Times,serif" font-size="14.00">string</text>
</g>
<!-- &quot;&#45;&gt;string -->
<g id="edge36" class="edge">
<title>&quot;&#45;&gt;string</title>
<path fill="none" stroke="black" d="M1290,-360.16C1290,-343.08 1290,-316.25 1290,-292.98"/>
<polygon fill="black" stroke="black" points="1293.5,-293.25 1290,-283.25 1286.5,-293.25 1293.5,-293.25"/>
<text text-anchor="middle" x="1309.12" y="-325.13" font-family="Times,serif" font-size="14.00">吃了:&quot;</text>
</g>
<!-- error_state -->
<g id="node42" class="node">
<title>error_state</title>
<ellipse fill="none" stroke="red" cx="1398" cy="-245.85" rx="50.33" ry="50.33"/>
<ellipse fill="none" stroke="red" cx="1398" cy="-245.85" rx="54.33" ry="54.33"/>
<text text-anchor="middle" x="1398" y="-240.8" font-family="Times,serif" font-size="14.00">error_state</text>
</g>
<!-- &quot;&#45;&gt;error_state -->
<g id="edge37" class="edge">
<title>&quot;&#45;&gt;error_state</title>
<path fill="none" stroke="black" d="M1306.27,-363.73C1314.37,-356.54 1324.09,-347.39 1332,-338.43 1342.43,-326.6 1352.82,-313.17 1362.17,-300.3"/>
<polygon fill="black" stroke="black" points="1365.48,-302.68 1368.46,-292.51 1359.79,-298.61 1365.48,-302.68"/>
<text text-anchor="middle" x="1376.88" y="-325.13" font-family="Times,serif" font-size="14.00">吃了 EOF</text>
</g>
<!-- number&#45;&gt;number -->
<g id="edge38" class="edge">
<title>number&#45;&gt;number</title>
<path fill="none" stroke="black" d="M1560.29,-387.9C1573.06,-388.21 1583.58,-385.08 1583.58,-378.51 1583.58,-373.94 1578.5,-371.03 1571.1,-369.79"/>
<polygon fill="black" stroke="black" points="1571.48,-366.25 1561.29,-369.12 1571.05,-373.23 1571.48,-366.25"/>
<text text-anchor="middle" x="1613.2" y="-375.33" font-family="Times,serif" font-size="14.00">吃了:[0&#45;9]</text>
</g>
<!-- number_dot -->
<g id="node35" class="node">
<title>number_dot</title>
<ellipse fill="none" stroke="black" cx="1526" cy="-245.85" rx="55.96" ry="18"/>
<text text-anchor="middle" x="1526" y="-240.8" font-family="Times,serif" font-size="14.00">number_dot</text>
</g>
<!-- number&#45;&gt;number_dot -->
<g id="edge40" class="edge">
<title>number&#45;&gt;number_dot</title>
<path fill="none" stroke="black" d="M1526,-360.16C1526,-338.49 1526,-301.12 1526,-275.25"/>
<polygon fill="black" stroke="black" points="1529.5,-275.27 1526,-265.27 1522.5,-275.27 1529.5,-275.27"/>
<text text-anchor="middle" x="1544" y="-325.13" font-family="Times,serif" font-size="14.00">吃了:.</text>
</g>
<!-- number_f -->
<g id="node36" class="node">
<title>number_f</title>
<ellipse fill="none" stroke="black" cx="1728" cy="-245.85" rx="47.26" ry="47.26"/>
<ellipse fill="none" stroke="black" cx="1728" cy="-245.85" rx="51.26" ry="51.26"/>
<text text-anchor="middle" x="1728" y="-240.8" font-family="Times,serif" font-size="14.00">number_f</text>
</g>
<!-- number&#45;&gt;number_f -->
<g id="edge39" class="edge">
<title>number&#45;&gt;number_f</title>
<path fill="none" stroke="black" d="M1553.24,-364.98C1582.65,-350.94 1630.34,-326.65 1668,-300.18 1673.04,-296.63 1678.13,-292.72 1683.1,-288.68"/>
<polygon fill="black" stroke="black" points="1684.9,-290.9 1690.32,-281.79 1680.41,-285.53 1684.9,-290.9"/>
<text text-anchor="middle" x="1679.12" y="-325.13" font-family="Times,serif" font-size="14.00">吃了:非[0&#45;9|.]</text>
</g>
<!-- number_dot&#45;&gt;number_dot -->
<g id="edge41" class="edge">
<title>number_dot&#45;&gt;number_dot</title>
<path fill="none" stroke="black" d="M1560.62,-260.4C1580.94,-263.5 1599.96,-258.65 1599.96,-245.85 1599.96,-235.35 1587.16,-230.19 1571.34,-230.39"/>
<polygon fill="black" stroke="black" points="1571.29,-226.97 1561.62,-231.29 1571.88,-233.94 1571.29,-226.97"/>
<text text-anchor="middle" x="1629.58" y="-242.67" font-family="Times,serif" font-size="14.00">吃了:[0&#45;9]</text>
</g>
<!-- number_dot_f -->
<g id="node37" class="node">
<title>number_dot_f</title>
<ellipse fill="none" stroke="black" cx="1526" cy="-67.63" rx="63.63" ry="63.63"/>
<ellipse fill="none" stroke="black" cx="1526" cy="-67.63" rx="67.63" ry="67.63"/>
<text text-anchor="middle" x="1526" y="-62.58" font-family="Times,serif" font-size="14.00">number_dot_f</text>
</g>
<!-- number_dot&#45;&gt;number_dot_f -->
<g id="edge42" class="edge">
<title>number_dot&#45;&gt;number_dot_f</title>
<path fill="none" stroke="black" d="M1526,-227.63C1526,-208.57 1526,-176.53 1526,-146.18"/>
<polygon fill="black" stroke="black" points="1529.5,-146.54 1526,-136.54 1522.5,-146.54 1529.5,-146.54"/>
<text text-anchor="middle" x="1562.75" y="-160.22" font-family="Times,serif" font-size="14.00">吃了:非[0&#45;9]</text>
</g>
<!-- alpha_array&#45;&gt;alpha_array -->
<g id="edge43" class="edge">
<title>alpha_array&#45;&gt;alpha_array</title>
<path fill="none" stroke="black" d="M1827.02,-387.91C1841.28,-387.67 1852.42,-384.54 1852.42,-378.51 1852.42,-374.13 1846.54,-371.28 1837.85,-369.95"/>
<polygon fill="black" stroke="black" points="1838.26,-366.4 1828.02,-369.11 1837.72,-373.37 1838.26,-366.4"/>
<text text-anchor="middle" x="1915.05" y="-375.33" font-family="Times,serif" font-size="14.00">吃了: 非 \s or 非 EOF</text>
</g>
<!-- alpha_array_f -->
<g id="node39" class="node">
<title>alpha_array_f</title>
<ellipse fill="none" stroke="black" cx="1859" cy="-245.85" rx="62.1" ry="18"/>
<text text-anchor="middle" x="1859" y="-240.8" font-family="Times,serif" font-size="14.00">alpha_array_f</text>
</g>
<!-- alpha_array&#45;&gt;alpha_array_f -->
<g id="edge44" class="edge">
<title>alpha_array&#45;&gt;alpha_array_f</title>
<path fill="none" stroke="black" d="M1794.84,-360.99C1800.54,-354.24 1806.9,-346.2 1812,-338.43 1825.57,-317.71 1838.22,-292.59 1846.97,-273.9"/>
<polygon fill="black" stroke="black" points="1850.53,-275.53 1851.53,-264.99 1844.17,-272.61 1850.53,-275.53"/>
<text text-anchor="middle" x="1867.62" y="-325.13" font-family="Times,serif" font-size="14.00">吃了: \s or EOF</text>
</g>
<!-- variable -->
<g id="node40" class="node">
<title>variable</title>
<ellipse fill="none" stroke="yellow" cx="1803" cy="-67.63" rx="40.6" ry="40.6"/>
<ellipse fill="none" stroke="yellow" cx="1803" cy="-67.63" rx="44.6" ry="44.6"/>
<text text-anchor="middle" x="1803" y="-62.58" font-family="Times,serif" font-size="14.00">variable</text>
</g>
<!-- alpha_array_f&#45;&gt;variable -->
<g id="edge46" class="edge">
<title>alpha_array_f&#45;&gt;variable</title>
<path fill="none" stroke="black" d="M1841.79,-228.19C1829.2,-214.76 1813.09,-194.69 1805.75,-173.52 1800.24,-157.64 1798.35,-139.58 1798.18,-122.97"/>
<polygon fill="black" stroke="black" points="1801.69,-123.34 1798.3,-113.31 1794.69,-123.27 1801.69,-123.34"/>
<text text-anchor="middle" x="1841.62" y="-160.22" font-family="Times,serif" font-size="14.00">不是关键字</text>
</g>
<!-- identifier -->
<g id="node41" class="node">
<title>identifier</title>
<ellipse fill="none" stroke="yellow" cx="1914" cy="-67.63" rx="44.7" ry="44.7"/>
<ellipse fill="none" stroke="yellow" cx="1914" cy="-67.63" rx="48.7" ry="48.7"/>
<text text-anchor="middle" x="1914" y="-62.58" font-family="Times,serif" font-size="14.00">identifier</text>
</g>
<!-- alpha_array_f&#45;&gt;identifier -->
<g id="edge45" class="edge">
<title>alpha_array_f&#45;&gt;identifier</title>
<path fill="none" stroke="black" d="M1864.37,-227.63C1871.75,-203.98 1885.38,-160.34 1896.48,-124.75"/>
<polygon fill="black" stroke="black" points="1900.05,-126.06 1899.69,-115.48 1893.37,-123.98 1900.05,-126.06"/>
<text text-anchor="middle" x="1914.5" y="-160.22" font-family="Times,serif" font-size="14.00">是关键字</text>
</g>
</g>
</svg>
